<?xml version="1.0" encoding="UTF-8"?>
<svg width="256px" height="256px" viewBox="0 0 256 256" version="1.1" xmlns="http://www.w3.org/2000/svg" xmlns:xlink="http://www.w3.org/1999/xlink">
    <!-- Generator: Sketch 46.2 (44496) - http://www.bohemiancoding.com/sketch -->
    <title>evidon.adobelaunch</title>
    <desc>Created with Sketch.</desc>
    <defs>
        <filter x="-3.9%" y="-2.3%" width="107.8%" height="106.4%" filterUnits="objectBoundingBox" id="filter-1">
            <feOffset dx="0" dy="2" in="SourceAlpha" result="shadowOffsetOuter1"></feOffset>
            <feGaussianBlur stdDeviation="2" in="shadowOffsetOuter1" result="shadowBlurOuter1"></feGaussianBlur>
            <feColorMatrix values="0 0 0 0 0   0 0 0 0 0   0 0 0 0 0  0 0 0 0.315641984 0" type="matrix" in="shadowBlurOuter1" result="shadowMatrixOuter1"></feColorMatrix>
            <feMerge>
                <feMergeNode in="shadowMatrixOuter1"></feMergeNode>
                <feMergeNode in="SourceGraphic"></feMergeNode>
            </feMerge>
        </filter>
    </defs>
    <g id="Symbols" stroke="none" stroke-width="1" fill="none" fill-rule="evenodd">
        <g id="avatar">
            <g id="Group-5">
                <g id="Group-3">
                    <g id="evidon.adobelaunch">
                        <rect id="Rectangle-4" fill="#FFFFFF" x="0" y="0" width="256" height="256"></rect>
                        <g id="Group-4" filter="url(#filter-1)" transform="translate(38.000000, 18.000000)">
                            <path d="M68.5953728,218.392642 C55.9959511,218.392642 45.7822706,208.118155 45.7822706,195.443646 C45.7822706,182.769138 55.9959511,172.49419 68.5953728,172.49419 C81.1943337,172.49419 91.4080142,182.769138 91.4080142,195.443646 C91.4080142,208.118155 81.1943337,218.392642 68.5953728,218.392642" id="Fill-3" fill="#173147"></path>
                            <path d="M179.211025,175.483391 C179.211025,188.709306 168.553272,199.43063 155.40659,199.43063 C142.259448,199.43063 131.601694,188.709306 131.601694,175.483391 C131.601694,162.257937 142.259448,151.536613 155.40659,151.536613 C168.553272,151.536613 179.211025,162.257937 179.211025,175.483391" id="Fill-6" fill="#3189BD"></path>
                            <path d="M150.434261,23.8172375 C150.434261,36.4917461 140.220581,46.7662333 127.62162,46.7662333 C115.022198,46.7662333 104.808518,36.4917461 104.808518,23.8172375 C104.808518,11.1427288 115.022198,0.867780955 127.62162,0.867780955 C140.220581,0.867780955 150.434261,11.1427288 150.434261,23.8172375" id="Fill-7" fill="#A5226E"></path>
                            <path d="M69.1034771,32.2076388 C69.1034771,42.6779051 60.6660888,51.1655049 50.2580112,51.1655049 C39.8499335,51.1655049 31.4125453,42.6779051 31.4125453,32.2076388 C31.4125453,21.7373724 39.8499335,13.2493119 50.2580112,13.2493119 C60.6660888,13.2493119 69.1034771,21.7373724 69.1034771,32.2076388" id="Fill-10" fill="#E9876A"></path>
                            <path d="M0.862713731,156.015578 C0.862713731,145.545312 9.30010199,137.057251 19.7081796,137.057251 C30.1157966,137.057251 38.5531849,145.545312 38.5531849,156.015578 C38.5531849,166.485844 30.1157966,174.973444 19.7081796,174.973444 C9.30010199,174.973444 0.862713731,166.485844 0.862713731,156.015578" id="Fill-11" fill="#0C9071"></path>
                            <path d="M120.706702,118.943769 C119.111909,122.554396 116.918261,125.672581 114.144647,128.335177 C111.353068,130.979347 108.144594,133.039864 104.519225,134.51673 C100.893857,135.994056 97.0505982,136.723275 92.99037,136.723275 C88.9481074,136.723275 85.1048485,135.994056 81.4794802,134.51673 C77.8356857,133.039864 74.6636036,130.979347 71.9263814,128.335177 C69.1891592,125.672581 67.0319039,122.554396 65.4186841,118.943769 C63.8234299,115.333142 63.0255725,111.394066 63.0255725,107.127003 C63.0255725,102.85994 63.8234299,98.9392907 65.4186841,95.3286635 C67.0319039,91.7175755 69.1891592,88.5993903 71.9263814,85.9367945 C74.6636036,83.2746594 77.8356857,81.2136813 81.4794802,79.7552422 C85.1048485,78.2779161 88.9481074,77.5486965 92.99037,77.5486965 C97.0505982,77.5486965 100.893857,78.2779161 104.519225,79.7552422 C108.144594,81.2136813 111.353068,83.2746594 114.144647,85.9367945 C116.918261,88.5993903 119.111909,91.7175755 120.706702,95.3286635 C122.320383,98.9392907 123.117779,102.85994 123.117779,107.127003 C123.117779,111.394066 122.320383,115.333142 120.706702,118.943769 Z M147.716848,84.8611611 C144.798127,77.9863204 140.719472,71.9867274 135.49885,66.8808085 C130.260262,61.7564633 124.005926,57.744604 116.755189,54.8452307 C109.486026,51.963823 101.582539,50.5049232 92.99037,50.5049232 C84.3254174,50.5049232 76.3855383,51.963823 69.170733,54.8452307 C61.9563883,57.744604 55.7568703,61.7564633 50.5721791,66.8808085 C45.3879485,71.9867274 41.3272596,77.9863204 38.4089994,84.8611611 C35.4902785,91.7539674 34.0221655,99.1760683 34.0221655,107.127003 C34.0221655,115.095903 35.4902785,122.518004 38.4089994,129.392845 C41.3272596,136.267686 45.3879485,142.267279 50.5721791,147.391163 C55.7568703,152.515508 61.9563883,156.527368 69.170733,159.408775 C76.3855383,162.308149 84.3254174,163.748622 92.99037,163.748622 C101.582539,163.748622 109.486026,162.308149 116.755189,159.408775 C124.005926,156.527368 130.260262,152.515508 135.49885,147.391163 C140.719472,142.267279 144.798127,136.267686 147.716848,129.392845 C150.635108,122.518004 152.103681,115.095903 152.103681,107.127003 C152.103681,99.1760683 150.635108,91.7539674 147.716848,84.8611611 L147.716848,84.8611611 Z" id="Fill-12" fill="#2B2C27"></path>
                        </g>
                    </g>
                </g>
            </g>
        </g>
    </g>
</svg>